PathFileType	4	(X/Y/Z)	Patient4_TMGait_0pt2_01_right_25.trc.trc
DataRate	CameraRate	NumFrames	NumMarkers	Units	OrigDataRate	OrigDataStartFrame	OrigNumFrames
45.454545454545	45.454545454545	4	33	mm	45.454545454545	71	       141
Frame#	Time	Sacral			L.Shoulder			Chest			R.Shoulder			Neck			R.ASIS			L.ASIS			R.Thigh.Superior			R.Thigh.Lateral			R.Thigh.Inferior			R.Patella			L.Thigh.Superior			L.Thigh.Lateral			L.Thigh.Inferior			L.Patella			L.Shank.Superior			L.Shank.Lateral			L.Shank.Inferior			R.Shank.Superior			R.Shank.Lateral			R.Shank.Inferior			R.Heel			R.Midfoot.Superior			R.Midfoot.Lateral			R.Toe			L.Heel			L.Midfoot.Lateral			L.Midfoot.Superior			L.Toe			L.Elbow			L.Wrist			R.Elbow			R.Wrist			
		X1	Y1	Z1	X2	Y2	Z2	X3	Y3	Z3	X4	Y4	Z4	X5	Y5	Z5	X6	Y6	Z6	X7	Y7	Z7	X8	Y8	Z8	X9	Y9	Z9	X10	Y10	Z10	X11	Y11	Z11	X12	Y12	Z12	X13	Y13	Z13	X14	Y14	Z14	X15	Y15	Z15	X16	Y16	Z16	X17	Y17	Z17	X18	Y18	Z18	X19	Y19	Z19	X20	Y20	Z20	X21	Y21	Z21	X22	Y22	Z22	X23	Y23	Z23	X24	Y24	Z24	X25	Y25	Z25	X26	Y26	Z26	X27	Y27	Z27	X28	Y28	Z28	X29	Y29	Z29	X30	Y30	Z30	X31	Y31	Z31	X32	Y32	Z32	X33	Y33	Z33	

71	57.580000000000	842.458091711453	1012.393263329032	583.892568807275	965.374983463318	1438.638526511254	365.204166614918	1109.020784522319	1369.514085047814	490.890400837349	1077.582045576033	1441.255332561657	681.095226095366	984.586992725332	1497.343652582524	522.210158453508	1087.756530090139	936.435239796567	641.567429904519	1014.567996189042	969.277126271240	379.054340560141	1092.696106381514	726.900358031161	600.275511988419	1008.577508647961	621.383511876359	668.855604767892	1061.662508011525	566.656487250606	575.079800044557	1049.228970828671	476.276813117517	578.531365463770	1090.487104670874	774.270471725064	401.385398699004	1027.693967092616	648.313090693631	328.103654293822	1127.681634707675	582.769265976850	384.842270877883	1147.349393255060	513.623348852177	379.355314922205	1120.668558432006	441.224273785820	366.140474255608	1036.336929603832	325.897802061493	304.761939387893	1104.198797983862	210.563358328842	356.680702510024	1004.378756347381	393.068156810206	585.945220637257	922.965552945028	300.092950947096	651.943600897816	936.400630895400	203.836375332201	580.395318456782	771.926388781135	56.294943100526	556.731187377205	946.772888689299	96.495001793322	584.478799736600	857.843618579539	42.304451786709	626.661441853820	1064.781284632389	38.516282742879	607.660697757311	990.396647072969	42.669594881590	381.030668490102	1068.462515204028	41.967723119835	304.610126646889	1147.642462914501	109.983327869648	332.381568923571	1278.492464801039	66.418288471404	310.101886741474	807.531163998736	1120.463463311184	299.143523485405	754.837356024359	868.440746051587	350.165354857507	1289.163721558277	1174.475628169572	779.171562318940	1506.185275105053	1253.950608355315	670.129334955330	
72	57.602000000000	843.298134147117	1012.425296368375	581.744664826623	965.525051923183	1438.743888324214	363.348193989512	1109.556230192044	1369.596351556779	488.660071481944	1078.334941430848	1441.094499620483	678.902386764255	984.708663253129	1497.285945455887	520.504747004269	1088.405835768193	936.213130347907	639.292753294999	1015.187056506795	969.259077088463	376.856854145009	1091.370285611844	726.218143065852	598.791379516845	1005.988756200246	621.649719462634	667.876251962734	1058.433309472935	566.084785911005	574.481905991465	1044.873969532028	476.200061194221	578.166389779963	1089.332474948219	772.227241236611	398.159323086637	1023.711199918397	646.560806192489	326.349703468637	1123.695168279918	580.544935276044	382.234845833733	1142.135359531676	512.298084454249	378.292861173533	1117.592176061602	440.166332531037	365.147420359485	1036.378434420873	322.822407991728	303.310380715924	1106.174978319236	209.183505296026	356.388458372631	1000.281822744656	393.149329963465	585.704367485040	918.600497760239	300.419246259795	651.806303588504	932.117913946110	203.959956598014	580.373800672987	767.504865510322	56.511859452183	556.654368591253	942.426226058014	96.536810416307	584.535664796095	853.410500930891	42.390572685336	626.651697355592	1060.342725319888	38.477064612031	607.695936479732	995.143778500651	40.252865649059	380.018842395806	1074.181129931890	39.936123906485	304.521406227808	1152.226122267279	108.702264353650	333.151013042517	1283.763629813848	66.315720974599	312.850076182351	808.702307586199	1120.036484095255	297.857226977406	755.832279986323	868.021343444885	349.073181249650	1294.849490829932	1178.610477367395	773.789673943375	1507.300638239105	1267.590314073262	663.849772513843	
73	57.624000000000	844.314716289384	1012.262981033070	579.097020920448	965.937360848500	1438.615911352970	360.925531147857	1110.167828549976	1369.588198636817	486.149219167063	1078.787187900499	1440.854463265567	676.362356987392	984.830516621806	1497.098301472507	518.231122628270	1089.209844789949	936.013455370962	636.939156599692	1016.297806484744	968.981405071056	374.481771596883	1090.344148503924	725.527170725862	597.320952808329	1003.581772923217	621.925762961951	666.779921237052	1055.495618768514	565.499336452041	573.853506402154	1040.813097249487	476.097569352033	577.736033950335	1088.842055836799	770.099443439578	395.096712064232	1020.656623170338	644.729930060071	324.675592217780	1120.609629733960	578.315666642049	379.843627321469	1137.617752579150	510.652318818298	377.293161170136	1114.742110473311	438.789103005485	364.191231374656	1035.667031267023	320.173173027246	302.349587498255	1106.587310462297	207.816740850262	356.408270262562	996.383295687499	393.209493333433	585.386365725420	914.359833986384	300.803225337839	651.630569345911	927.926854035803	204.111983724010	580.339351221209	763.096892170578	56.817072679668	556.583797668180	938.139701135758	96.629834187746	584.650191515868	848.989563869742	42.519731730741	626.646957483050	1055.910918094298	38.434181960685	607.735139071789	997.192621746406	38.865344552441	379.841615838229	1076.770813459775	38.572278113108	304.912990884112	1154.273457133580	107.327664125058	334.137496237892	1285.951259955717	65.172250292251	315.092813522362	810.634044486429	1119.111833053690	295.625295155284	757.993426348033	867.007263736550	346.769317447252	1299.317043898167	1182.022864338005	768.535098519201	1507.665631075136	1278.768817893927	658.026009525479	
74	57.646000000000	845.490221095649	1012.004017420848	575.961423799556	966.623094604710	1438.347205647785	357.969801659054	1110.879891997405	1369.553860188770	483.364952119784	1079.004972713937	1440.611798144659	673.488683897006	984.985236261598	1496.853836945714	515.421485568398	1090.158824382269	935.881152854120	634.485738039786	1017.865027473334	968.549560571396	371.920062889216	1089.591674964192	724.869532267528	595.839412158643	1001.348843611622	622.254814039177	665.546598718238	1052.842519087541	564.943888093508	573.167415939699	1037.054161214863	476.009855860089	577.219307239314	1089.012128613746	768.014330072479	392.264157624675	1018.625097261662	642.946984479419	323.055602149478	1118.442908377924	576.180457553746	377.738669808936	1133.917468920550	508.828056690449	376.382181409622	1112.264418348659	437.201453451767	363.292767456201	1034.465425999362	317.920476943623	301.742254327751	1105.747973990747	206.429156705479	356.661674210815	992.682899090318	393.290264250276	584.980459777557	910.248335989032	301.293634701478	651.411985600520	923.839541402170	204.335109303605	580.296726234462	758.716972057108	57.264477200909	556.536937291265	933.936915415250	96.786475636687	584.831648966269	844.591583939626	42.719423946873	626.654058847443	1051.489939583901	38.383078567742	607.778395254868	996.919402311788	38.221834800095	380.251874401583	1076.713363035548	37.693752884780	305.599509962865	1154.187693402868	105.846386187890	335.246063410000	1285.631680028918	63.147952288418	316.831484993820	813.243970183239	1117.867740358349	292.445829071390	761.217919676853	865.570933740862	343.252915530527	1302.668490640901	1184.753182943146	763.478284115853	1507.513206199678	1287.641122521951	652.624969596258	
